<svg id="Ebene_1" data-name="Ebene 1" xmlns="http://www.w3.org/2000/svg" viewBox="0 0 55 55"><defs><style>.cls-1{fill:#dce0e8;}</style></defs><path class="cls-1" d="M27.49,24.74C25,19.91,18.23,10.88,11.93,6.44c-6-4.26-8.34-3.53-9.84-2.84C.34,4.39,0,7.07,0,8.65S.89,21.59,1.46,23.48c1.88,6.27,8.5,8.39,14.62,7.7.31,0,.62-.09,1-.12-.31.05-.64.09-1,.12C7.13,32.51-.84,35.77,9.6,47.39c11.48,11.88,15.74-2.55,17.92-9.87,2.19,7.31,4.7,21.22,17.7,9.87C55,37.52,47.9,32.51,39,31.18c-.31,0-.64-.07-1-.12l1,.12c6.12.69,12.76-1.43,14.62-7.7C54.13,21.58,55,10.23,55,8.65s-.31-4.26-2.06-5.05c-1.51-.69-3.8-1.42-9.84,2.84C36.75,10.9,30,19.91,27.49,24.74Z"/></svg>