<svg id="Layer_1" data-name="Layer 1" xmlns="http://www.w3.org/2000/svg" viewBox="0 0 63.93 64"><defs><style>.cls-1{fill:#dce0e8;}</style></defs><g id="B"><path class="cls-1" d="M28.57,47.54a6.82,6.82,0,0,1-12.47.33l3.95,1.64a5,5,0,0,0,3.88-9.32l-4.1-1.7a6.84,6.84,0,0,1,8.75,3.8A6.87,6.87,0,0,1,28.57,47.54Z" transform="translate(-0.17 -0.5)"/><path class="cls-1" d="M42.61,16.38a8.11,8.11,0,1,0,8.1,8.11A8.12,8.12,0,0,0,42.61,16.38Zm0,14.19a6.1,6.1,0,1,1,6.09-6.1A6.09,6.09,0,0,1,42.62,30.57Z" transform="translate(-0.17 -0.5)"/><path class="cls-1" d="M64.1,32.5A32,32,0,0,1,1.49,41.84l12.11,5a8.87,8.87,0,0,0,16.85,1.49,9,9,0,0,0,.68-3.65l11.19-8h.28A12.18,12.18,0,1,0,30.44,24.49h0v.15L22.63,36a8.71,8.71,0,0,0-3.75.66,7.71,7.71,0,0,0-1.5.8L.19,30.39l0,0A32,32,0,0,1,64.1,32.5Z" transform="translate(-0.17 -0.5)"/></g></svg>